<?xml version="1.0" encoding="UTF-8"?>
<svg width="490px" height="94px" viewBox="0 0 490 94" version="1.1" xmlns="http://www.w3.org/2000/svg" xmlns:xlink="http://www.w3.org/1999/xlink">
    <title>schema</title>
    <g id="schema" stroke="none" stroke-width="1" fill="none" fill-rule="evenodd">
        <g id="XML-data">
            <rect id="Rectangle" stroke="#FFC72C" stroke-width="3" fill="#D8D8D8" x="1.5" y="1.5" width="91" height="91" rx="15"></rect>
            <path d="M25.604,42 L29.708,35.688 L29.852,35.688 L33.932,42 L37.484,42 L37.484,41.76 L31.82,33.552 L31.82,33.456 L37.148,25.776 L37.148,25.44 L33.74,25.44 L29.852,31.32 L29.708,31.32 L25.796,25.44 L22.412,25.44 L22.412,25.776 L27.692,33.456 L27.692,33.552 L22.076,41.76 L22.076,42 L25.604,42 Z M50.372,42.12 L54.164,30.168 L54.404,30.168 L55.34,42 L58.34,42 L56.9,25.416 L53.084,25.416 L51.02,31.752 L49.052,38.112 L48.812,38.112 L46.844,31.752 L44.732,25.416 L40.916,25.416 L39.38,42 L42.404,42 L43.412,30.168 L43.652,30.168 L47.492,42.12 L50.372,42.12 Z M71.708,42 L72.02,39.432 L64.676,39.432 L64.676,25.44 L61.364,25.44 L61.364,42 L71.708,42 Z M28.988,71.264 C30.38,71.264 31.652,70.64 32.78,69.464 L32.876,69.464 L33.356,71 L35.516,71 L35.516,53.72 L32.228,53.72 L32.228,60.152 L32.132,60.152 C31.196,59.384 30.092,59 29.108,59 C25.844,59 24.02,61.28 24.02,65.12 C24.02,68.984 25.844,71.264 28.988,71.264 Z M29.924,68.744 C28.172,68.744 27.308,67.448 27.308,65.12 C27.308,62.84 28.172,61.52 29.924,61.52 C30.716,61.52 31.532,61.784 32.276,62.456 L32.276,67.808 C31.484,68.504 30.668,68.744 29.924,68.744 Z M41.42,71.216 C42.98,71.216 44.108,70.52 44.924,69.608 L45.068,69.608 L45.356,71 L47.996,71 L47.924,68.696 L47.924,63.608 C47.924,60.584 46.052,59 43.028,59 C41.324,59 39.644,59.456 38.348,60.056 L39.14,62.408 C40.436,61.928 41.612,61.688 42.548,61.688 C43.988,61.688 44.732,62.36 44.732,63.752 L44.732,64.472 L43.58,64.472 C39.764,64.472 37.868,65.96 37.868,68.096 C37.868,69.824 39.236,71.216 41.42,71.216 Z M42.212,69.08 C41.276,69.08 40.676,68.624 40.676,67.904 C40.676,67.04 41.588,66.44 43.7,66.44 L44.78,66.44 L44.78,67.28 C44.78,68.144 43.724,69.08 42.212,69.08 Z M54.884,71.192 C55.916,71.192 56.996,71.048 57.836,70.832 L57.596,68.36 C57.284,68.408 56.804,68.48 56.108,68.48 C55.004,68.48 54.62,67.88 54.62,66.44 L54.62,61.664 L57.668,61.664 L57.668,59.24 L54.62,59.24 L54.62,55.496 L52.1,55.52 L51.38,59.24 L49.412,59.24 L49.412,61.664 L51.332,61.664 L51.356,66.8 C51.356,69.92 52.364,71.192 54.884,71.192 Z M62.9,71.216 C64.46,71.216 65.588,70.52 66.404,69.608 L66.548,69.608 L66.836,71 L69.476,71 L69.404,68.696 L69.404,63.608 C69.404,60.584 67.532,59 64.508,59 C62.804,59 61.124,59.456 59.828,60.056 L60.62,62.408 C61.916,61.928 63.092,61.688 64.028,61.688 C65.468,61.688 66.212,62.36 66.212,63.752 L66.212,64.472 L65.06,64.472 C61.244,64.472 59.348,65.96 59.348,68.096 C59.348,69.824 60.716,71.216 62.9,71.216 Z M63.692,69.08 C62.756,69.08 62.156,68.624 62.156,67.904 C62.156,67.04 63.068,66.44 65.18,66.44 L66.26,66.44 L66.26,67.28 C66.26,68.144 65.204,69.08 63.692,69.08 Z" id="XMLdata" fill="#000000" fill-rule="nonzero"></path>
        </g>
        <g id="XML-layout" transform="translate(132.000000, 0.000000)">
            <rect id="Rectangle" stroke="#FFC72C" stroke-width="3" fill="#D8D8D8" x="1.5" y="1.5" width="91" height="91" rx="15"></rect>
            <path d="M25.604,42 L29.708,35.688 L29.852,35.688 L33.932,42 L37.484,42 L37.484,41.76 L31.82,33.552 L31.82,33.456 L37.148,25.776 L37.148,25.44 L33.74,25.44 L29.852,31.32 L29.708,31.32 L25.796,25.44 L22.412,25.44 L22.412,25.776 L27.692,33.456 L27.692,33.552 L22.076,41.76 L22.076,42 L25.604,42 Z M50.372,42.12 L54.164,30.168 L54.404,30.168 L55.34,42 L58.34,42 L56.9,25.416 L53.084,25.416 L51.02,31.752 L49.052,38.112 L48.812,38.112 L46.844,31.752 L44.732,25.416 L40.916,25.416 L39.38,42 L42.404,42 L43.412,30.168 L43.652,30.168 L47.492,42.12 L50.372,42.12 Z M71.708,42 L72.02,39.432 L64.676,39.432 L64.676,25.44 L61.364,25.44 L61.364,42 L71.708,42 Z M18.128,71 L18.128,53.72 L14.864,53.72 L14.864,71 L18.128,71 Z M24.128,71.216 C25.688,71.216 26.816,70.52 27.632,69.608 L27.776,69.608 L28.064,71 L30.704,71 L30.632,68.696 L30.632,63.608 C30.632,60.584 28.76,59 25.736,59 C24.032,59 22.352,59.456 21.056,60.056 L21.848,62.408 C23.144,61.928 24.32,61.688 25.256,61.688 C26.696,61.688 27.44,62.36 27.44,63.752 L27.44,64.472 L26.288,64.472 C22.472,64.472 20.576,65.96 20.576,68.096 C20.576,69.824 21.944,71.216 24.128,71.216 Z M24.92,69.08 C23.984,69.08 23.384,68.624 23.384,67.904 C23.384,67.04 24.296,66.44 26.408,66.44 L27.488,66.44 L27.488,67.28 C27.488,68.144 26.432,69.08 24.92,69.08 Z M37.784,76.28 L44.096,59.48 L44.096,59.24 L40.928,59.24 L37.976,67.928 L37.88,67.928 L35,59.24 L31.856,59.24 L31.856,59.48 L36.08,71 L36.896,71 L34.712,76.04 L34.712,76.28 L37.784,76.28 Z M50.648,71.24 C54.2,71.24 56.576,68.792 56.6,65.096 C56.552,61.448 54.176,59 50.648,59 C47.096,59 44.72,61.448 44.672,65.144 C44.72,68.792 47.096,71.24 50.648,71.24 Z M50.648,68.816 C49.04,68.816 47.936,67.328 47.936,65.12 C47.936,62.888 49.04,61.424 50.648,61.424 C52.256,61.448 53.336,62.912 53.336,65.12 C53.336,67.328 52.256,68.792 50.648,68.816 Z M62.888,71.24 C64.304,71.24 65.528,70.784 66.8,69.608 L66.896,69.608 L67.112,71 L69.752,71 L69.752,59.24 L66.464,59.24 L66.464,67.568 C65.768,68.288 64.904,68.624 64.016,68.624 C62.72,68.624 62.096,67.952 62.096,66.392 L62.096,59.24 L58.808,59.24 L58.808,66.584 C58.808,69.512 59.984,71.24 62.888,71.24 Z M77.192,71.192 C78.224,71.192 79.304,71.048 80.144,70.832 L79.904,68.36 C79.592,68.408 79.112,68.48 78.416,68.48 C77.312,68.48 76.928,67.88 76.928,66.44 L76.928,61.664 L79.976,61.664 L79.976,59.24 L76.928,59.24 L76.928,55.496 L74.408,55.52 L73.688,59.24 L71.72,59.24 L71.72,61.664 L73.64,61.664 L73.664,66.8 C73.664,69.92 74.672,71.192 77.192,71.192 Z" id="XMLlayout" fill="#000000" fill-rule="nonzero"></path>
        </g>
        <g id="CSS-styles" transform="translate(264.000000, 0.000000)">
            <rect id="Rectangle-Copy" stroke="#FFC72C" stroke-width="3" fill="#D8D8D8" x="1.5" y="1.5" width="91" height="91" rx="15"></rect>
            <path d="M35.36,42.24 C37.184,42.24 38.768,41.88 40.064,41.256 L39.152,38.688 C37.904,39.24 36.752,39.528 35.36,39.528 C32.384,39.528 30.392,37.68 30.344,33.72 C30.392,29.76 32.48,27.912 35.312,27.912 C36.8,27.912 37.832,28.176 39.104,28.68 L39.992,26.184 C38.648,25.584 37.184,25.2 35.336,25.2 L35.312,25.2 L35.312,25.2 C30.128,25.2 27.056,28.392 27.008,33.696 L27.008,33.744 C27.056,39.408 30.224,42.24 35.36,42.24 Z M47.096,42.216 C50.96,42.216 53.312,40.296 53.312,37.32 C53.312,32.04 45.152,33.024 45.152,29.76 C45.152,28.44 46.208,27.792 48.008,27.792 C49.304,27.792 50.648,28.128 51.992,28.752 L52.784,26.256 C51.392,25.56 49.976,25.2 47.96,25.2 C44.096,25.2 41.912,26.88 41.912,29.928 C41.912,35.52 50.024,34.272 50.024,37.464 C50.024,38.784 48.92,39.624 47.12,39.624 C45.56,39.624 43.76,39.168 42.296,38.4 L41.432,40.968 C43.088,41.76 45.152,42.216 47.096,42.216 Z M60.824,42.216 C64.688,42.216 67.04,40.296 67.04,37.32 C67.04,32.04 58.88,33.024 58.88,29.76 C58.88,28.44 59.936,27.792 61.736,27.792 C63.032,27.792 64.376,28.128 65.72,28.752 L66.512,26.256 C65.12,25.56 63.704,25.2 61.688,25.2 C57.824,25.2 55.64,26.88 55.64,29.928 C55.64,35.52 63.752,34.272 63.752,37.464 C63.752,38.784 62.648,39.624 60.848,39.624 C59.288,39.624 57.488,39.168 56.024,38.4 L55.16,40.968 C56.816,41.76 58.88,42.216 60.824,42.216 Z M20.864,71.24 C24.008,71.24 25.88,69.824 25.904,67.688 C25.904,64.016 20.072,64.448 20.072,62.384 C20.072,61.712 20.72,61.352 21.992,61.352 C22.976,61.352 24.008,61.616 24.872,62.024 L25.352,59.672 C24.488,59.264 23.24,59 21.944,59 C18.848,59 16.904,60.392 16.904,62.528 C16.904,66.608 22.712,65.768 22.712,67.76 C22.688,68.48 21.824,68.888 20.672,68.888 C19.496,68.888 18.2,68.552 17.192,68.096 L16.712,70.4 C17.792,70.928 19.4,71.24 20.864,71.24 Z M32.504,71.192 C33.536,71.192 34.616,71.048 35.456,70.832 L35.216,68.36 C34.904,68.408 34.424,68.48 33.728,68.48 C32.624,68.48 32.24,67.88 32.24,66.44 L32.24,61.664 L35.288,61.664 L35.288,59.24 L32.24,59.24 L32.24,55.496 L29.72,55.52 L29,59.24 L27.032,59.24 L27.032,61.664 L28.952,61.664 L28.976,66.8 C28.976,69.92 29.984,71.192 32.504,71.192 Z M42.152,76.28 L48.464,59.48 L48.464,59.24 L45.296,59.24 L42.344,67.928 L42.248,67.928 L39.368,59.24 L36.224,59.24 L36.224,59.48 L40.448,71 L41.264,71 L39.08,76.04 L39.08,76.28 L42.152,76.28 Z M53.432,71 L53.432,53.72 L50.168,53.72 L50.168,71 L53.432,71 Z M61.688,71.24 C63.152,71.24 64.808,70.928 66.008,70.352 L65.456,68.12 C64.568,68.528 63.296,68.792 62.12,68.792 C60.248,68.792 58.928,68.024 58.784,65.936 L66.44,65.936 C67.112,62.288 65.624,59 61.472,59 C57.728,59 55.736,61.544 55.736,65.072 C55.736,68.96 57.968,71.24 61.688,71.24 Z M63.56,63.944 L58.784,63.944 C58.856,62.408 59.72,61.256 61.328,61.256 C62.912,61.256 63.56,62.24 63.56,63.488 L63.56,63.944 Z M72.344,71.24 C75.488,71.24 77.36,69.824 77.384,67.688 C77.384,64.016 71.552,64.448 71.552,62.384 C71.552,61.712 72.2,61.352 73.472,61.352 C74.456,61.352 75.488,61.616 76.352,62.024 L76.832,59.672 C75.968,59.264 74.72,59 73.424,59 C70.328,59 68.384,60.392 68.384,62.528 C68.384,66.608 74.192,65.768 74.192,67.76 C74.168,68.48 73.304,68.888 72.152,68.888 C70.976,68.888 69.68,68.552 68.672,68.096 L68.192,70.4 C69.272,70.928 70.88,71.24 72.344,71.24 Z" id="CSSstyles" fill="#000000" fill-rule="nonzero"></path>
        </g>
        <g id="PDF" transform="translate(396.000000, 0.000000)">
            <rect id="Rectangle-Copy-2" stroke="#FFC72C" stroke-width="3" fill="#D8D8D8" x="1.5" y="1.5" width="91" height="91" rx="15"></rect>
            <path d="M30.284,51.5 L30.284,45.932 L32.18,45.932 C36.284,45.932 38.852,43.82 38.852,40.412 C38.852,36.98 36.332,34.94 32.18,34.94 L26.972,34.94 L26.972,51.5 L30.284,51.5 Z M32.228,43.46 L30.284,43.46 L30.284,37.412 L32.228,37.412 C34.34,37.412 35.54,38.516 35.54,40.436 C35.54,42.284 34.292,43.46 32.228,43.46 Z M46.22,51.5 C51.668,51.5 54.788,48.548 54.788,43.124 C54.788,37.82 51.668,34.94 46.22,34.94 L41.132,34.94 L41.132,51.5 L46.22,51.5 Z M46.196,49.004 L44.42,49.004 L44.42,37.436 L46.196,37.436 C49.484,37.436 51.5,39.428 51.5,43.076 C51.5,46.916 49.484,49.004 46.196,49.004 Z M60.644,51.5 L60.668,44.444 L66.644,44.444 L66.644,42.044 L60.668,42.044 L60.668,37.436 L67.796,37.436 L67.796,34.916 L57.356,34.916 L57.356,51.5 L60.644,51.5 Z" fill="#000000" fill-rule="nonzero"></path>
        </g>
        <polygon id="+" fill="#000000" fill-rule="nonzero" points="114.368 50.112 114.368 45.696 118.568 45.696 118.568 43.344 114.368 43.344 114.368 38.976 111.704 38.976 111.704 43.344 107.432 43.344 107.432 45.696 111.704 45.696 111.704 50.112"></polygon>
        <polygon id="+" fill="#000000" fill-rule="nonzero" points="246.368 50.112 246.368 45.696 250.568 45.696 250.568 43.344 246.368 43.344 246.368 38.976 243.704 38.976 243.704 43.344 239.432 43.344 239.432 45.696 243.704 45.696 243.704 50.112"></polygon>
        <path d="M382.724,43.128 L382.724,40.848 L371.3,40.848 L371.3,43.128 L382.724,43.128 Z M382.724,47.904 L382.724,45.624 L371.3,45.624 L371.3,47.904 L382.724,47.904 Z" id="=" fill="#000000" fill-rule="nonzero"></path>
    </g>
</svg>